<mxfile host="app.diagrams.net" modified="2024-05-06T09:02:30.759Z" agent="Mozilla/5.0 (Windows NT 10.0; Win64; x64) AppleWebKit/537.36 (KHTML, like Gecko) Chrome/121.0.0.0 Safari/537.36 OPR/107.0.0.0" etag="UrtOnjA90bsN83U12usM" version="24.3.1" type="github">
  <diagram name="Page-1" id="2YBvvXClWsGukQMizWep">
    <mxGraphModel dx="1402" dy="803" grid="1" gridSize="10" guides="1" tooltips="1" connect="1" arrows="1" fold="1" page="1" pageScale="1" pageWidth="850" pageHeight="1100" math="0" shadow="0">
      <root>
        <mxCell id="0" />
        <mxCell id="1" parent="0" />
        <mxCell id="I7gX6TklzmigMuzpeqTn-1" value="Khách hàng" style="shape=umlActor;verticalLabelPosition=bottom;verticalAlign=top;html=1;" parent="1" vertex="1">
          <mxGeometry x="60" y="380" width="30" height="60" as="geometry" />
        </mxCell>
        <mxCell id="I7gX6TklzmigMuzpeqTn-2" value="Giao diện website" style="shape=umlBoundary;whiteSpace=wrap;html=1;" parent="1" vertex="1">
          <mxGeometry x="200" y="380" width="100" height="80" as="geometry" />
        </mxCell>
        <mxCell id="I7gX6TklzmigMuzpeqTn-3" value="Giao diện đăng nhập" style="shape=umlBoundary;whiteSpace=wrap;html=1;" parent="1" vertex="1">
          <mxGeometry x="390" y="380" width="100" height="80" as="geometry" />
        </mxCell>
        <mxCell id="I7gX6TklzmigMuzpeqTn-4" value="Login" style="ellipse;shape=umlControl;whiteSpace=wrap;html=1;" parent="1" vertex="1">
          <mxGeometry x="610" y="380" width="70" height="80" as="geometry" />
        </mxCell>
        <mxCell id="I7gX6TklzmigMuzpeqTn-5" value="Lớp tài khoản&amp;nbsp;" style="ellipse;shape=umlEntity;whiteSpace=wrap;html=1;" parent="1" vertex="1">
          <mxGeometry x="850" y="380" width="80" height="80" as="geometry" />
        </mxCell>
        <mxCell id="I7gX6TklzmigMuzpeqTn-7" value="" style="endArrow=none;dashed=1;html=1;dashPattern=1 3;strokeWidth=2;rounded=0;" parent="1" edge="1">
          <mxGeometry width="50" height="50" relative="1" as="geometry">
            <mxPoint x="80" y="990" as="sourcePoint" />
            <mxPoint x="80" y="480" as="targetPoint" />
          </mxGeometry>
        </mxCell>
        <mxCell id="I7gX6TklzmigMuzpeqTn-8" value="" style="endArrow=none;dashed=1;html=1;dashPattern=1 3;strokeWidth=2;rounded=0;entryX=0.554;entryY=1.005;entryDx=0;entryDy=0;entryPerimeter=0;" parent="1" target="I7gX6TklzmigMuzpeqTn-2" edge="1">
          <mxGeometry width="50" height="50" relative="1" as="geometry">
            <mxPoint x="255" y="1000" as="sourcePoint" />
            <mxPoint x="239.66" y="490" as="targetPoint" />
          </mxGeometry>
        </mxCell>
        <mxCell id="I7gX6TklzmigMuzpeqTn-9" value="" style="endArrow=none;dashed=1;html=1;dashPattern=1 3;strokeWidth=2;rounded=0;entryX=0.526;entryY=0.993;entryDx=0;entryDy=0;entryPerimeter=0;" parent="1" source="I7gX6TklzmigMuzpeqTn-27" target="I7gX6TklzmigMuzpeqTn-3" edge="1">
          <mxGeometry width="50" height="50" relative="1" as="geometry">
            <mxPoint x="440" y="1000" as="sourcePoint" />
            <mxPoint x="409.5" y="490" as="targetPoint" />
          </mxGeometry>
        </mxCell>
        <mxCell id="I7gX6TklzmigMuzpeqTn-10" value="" style="endArrow=none;dashed=1;html=1;dashPattern=1 3;strokeWidth=2;rounded=0;entryX=0.466;entryY=1.005;entryDx=0;entryDy=0;entryPerimeter=0;" parent="1" target="I7gX6TklzmigMuzpeqTn-4" edge="1">
          <mxGeometry width="50" height="50" relative="1" as="geometry">
            <mxPoint x="640" y="990" as="sourcePoint" />
            <mxPoint x="584.5" y="490" as="targetPoint" />
          </mxGeometry>
        </mxCell>
        <mxCell id="I7gX6TklzmigMuzpeqTn-11" value="" style="endArrow=none;dashed=1;html=1;dashPattern=1 3;strokeWidth=2;rounded=0;entryX=0.5;entryY=1;entryDx=0;entryDy=0;" parent="1" source="I7gX6TklzmigMuzpeqTn-38" target="I7gX6TklzmigMuzpeqTn-5" edge="1">
          <mxGeometry width="50" height="50" relative="1" as="geometry">
            <mxPoint x="890" y="990" as="sourcePoint" />
            <mxPoint x="749.5" y="490" as="targetPoint" />
          </mxGeometry>
        </mxCell>
        <mxCell id="I7gX6TklzmigMuzpeqTn-12" value="" style="endArrow=classic;html=1;rounded=0;entryX=0;entryY=0;entryDx=0;entryDy=5;entryPerimeter=0;" parent="1" target="I7gX6TklzmigMuzpeqTn-23" edge="1">
          <mxGeometry width="50" height="50" relative="1" as="geometry">
            <mxPoint x="80" y="595" as="sourcePoint" />
            <mxPoint x="240" y="600" as="targetPoint" />
          </mxGeometry>
        </mxCell>
        <mxCell id="I7gX6TklzmigMuzpeqTn-13" value="1:Nhấp chọn đăng nhập" style="text;html=1;align=center;verticalAlign=middle;resizable=0;points=[];autosize=1;strokeColor=none;fillColor=none;" parent="1" vertex="1">
          <mxGeometry x="80" y="563" width="150" height="30" as="geometry" />
        </mxCell>
        <mxCell id="I7gX6TklzmigMuzpeqTn-23" value="" style="html=1;points=[[0,0,0,0,5],[0,1,0,0,-5],[1,0,0,0,5],[1,1,0,0,-5]];perimeter=orthogonalPerimeter;outlineConnect=0;targetShapes=umlLifeline;portConstraint=eastwest;newEdgeStyle={&quot;curved&quot;:0,&quot;rounded&quot;:0};" parent="1" vertex="1">
          <mxGeometry x="245" y="590" width="10" height="30" as="geometry" />
        </mxCell>
        <mxCell id="I7gX6TklzmigMuzpeqTn-25" value="" style="endArrow=classic;html=1;rounded=0;" parent="1" edge="1">
          <mxGeometry width="50" height="50" relative="1" as="geometry">
            <mxPoint x="260" y="600" as="sourcePoint" />
            <mxPoint x="440" y="600" as="targetPoint" />
          </mxGeometry>
        </mxCell>
        <mxCell id="I7gX6TklzmigMuzpeqTn-26" value="2:Yêu cầu hiển thị&amp;nbsp;&lt;br&gt;form đăng nhập" style="text;html=1;align=center;verticalAlign=middle;resizable=0;points=[];autosize=1;strokeColor=none;fillColor=none;" parent="1" vertex="1">
          <mxGeometry x="270" y="558" width="120" height="40" as="geometry" />
        </mxCell>
        <mxCell id="I7gX6TklzmigMuzpeqTn-28" value="self call" style="html=1;align=left;spacingLeft=2;endArrow=block;rounded=0;edgeStyle=orthogonalEdgeStyle;curved=0;rounded=0;" parent="1" source="I7gX6TklzmigMuzpeqTn-27" target="I7gX6TklzmigMuzpeqTn-27" edge="1">
          <mxGeometry x="-0.2939" y="100" relative="1" as="geometry">
            <mxPoint x="460" y="640" as="sourcePoint" />
            <Array as="points">
              <mxPoint x="490" y="640" />
              <mxPoint x="490" y="650" />
            </Array>
            <mxPoint x="-20" y="-60" as="offset" />
          </mxGeometry>
        </mxCell>
        <mxCell id="I7gX6TklzmigMuzpeqTn-29" value="" style="endArrow=none;dashed=1;html=1;dashPattern=1 3;strokeWidth=2;rounded=0;entryX=0.526;entryY=0.993;entryDx=0;entryDy=0;entryPerimeter=0;" parent="1" target="I7gX6TklzmigMuzpeqTn-27" edge="1">
          <mxGeometry width="50" height="50" relative="1" as="geometry">
            <mxPoint x="440" y="1000" as="sourcePoint" />
            <mxPoint x="443" y="459" as="targetPoint" />
          </mxGeometry>
        </mxCell>
        <mxCell id="I7gX6TklzmigMuzpeqTn-27" value="" style="html=1;points=[[0,0,0,0,5],[0,1,0,0,-5],[1,0,0,0,5],[1,1,0,0,-5]];perimeter=orthogonalPerimeter;outlineConnect=0;targetShapes=umlLifeline;portConstraint=eastwest;newEdgeStyle={&quot;curved&quot;:0,&quot;rounded&quot;:0};" parent="1" vertex="1">
          <mxGeometry x="435" y="630" width="10" height="60" as="geometry" />
        </mxCell>
        <mxCell id="I7gX6TklzmigMuzpeqTn-30" value="" style="endArrow=classic;html=1;rounded=0;entryX=-0.001;entryY=0.942;entryDx=0;entryDy=0;entryPerimeter=0;" parent="1" target="I7gX6TklzmigMuzpeqTn-33" edge="1">
          <mxGeometry width="50" height="50" relative="1" as="geometry">
            <mxPoint x="80" y="640" as="sourcePoint" />
            <mxPoint x="250" y="640" as="targetPoint" />
          </mxGeometry>
        </mxCell>
        <mxCell id="I7gX6TklzmigMuzpeqTn-31" value="3:Nhập tài khoản và mật khẩu" style="text;html=1;align=center;verticalAlign=middle;resizable=0;points=[];autosize=1;strokeColor=none;fillColor=none;" parent="1" vertex="1">
          <mxGeometry x="70" y="610" width="180" height="30" as="geometry" />
        </mxCell>
        <mxCell id="I7gX6TklzmigMuzpeqTn-33" value="4:Kiểm tra tài khoản và mật khẩu&lt;br&gt;không được để trống" style="text;html=1;align=center;verticalAlign=middle;resizable=0;points=[];autosize=1;strokeColor=none;fillColor=none;" parent="1" vertex="1">
          <mxGeometry x="435" y="605" width="200" height="40" as="geometry" />
        </mxCell>
        <mxCell id="I7gX6TklzmigMuzpeqTn-35" value="" style="endArrow=none;dashed=1;html=1;dashPattern=1 3;strokeWidth=2;rounded=0;entryX=0.466;entryY=1.005;entryDx=0;entryDy=0;entryPerimeter=0;" parent="1" target="I7gX6TklzmigMuzpeqTn-34" edge="1">
          <mxGeometry width="50" height="50" relative="1" as="geometry">
            <mxPoint x="640" y="990" as="sourcePoint" />
            <mxPoint x="643" y="460" as="targetPoint" />
          </mxGeometry>
        </mxCell>
        <mxCell id="I7gX6TklzmigMuzpeqTn-34" value="" style="html=1;points=[[0,0,0,0,5],[0,1,0,0,-5],[1,0,0,0,5],[1,1,0,0,-5]];perimeter=orthogonalPerimeter;outlineConnect=0;targetShapes=umlLifeline;portConstraint=eastwest;newEdgeStyle={&quot;curved&quot;:0,&quot;rounded&quot;:0};" parent="1" vertex="1">
          <mxGeometry x="635" y="670" width="10" height="30" as="geometry" />
        </mxCell>
        <mxCell id="I7gX6TklzmigMuzpeqTn-36" value="" style="endArrow=classic;html=1;rounded=0;" parent="1" source="I7gX6TklzmigMuzpeqTn-27" target="I7gX6TklzmigMuzpeqTn-34" edge="1">
          <mxGeometry width="50" height="50" relative="1" as="geometry">
            <mxPoint x="620" y="760" as="sourcePoint" />
            <mxPoint x="670" y="710" as="targetPoint" />
          </mxGeometry>
        </mxCell>
        <mxCell id="I7gX6TklzmigMuzpeqTn-37" value="5:Gửi yêu cầu kiểm tra đến CSDL" style="text;html=1;align=center;verticalAlign=middle;resizable=0;points=[];autosize=1;strokeColor=none;fillColor=none;" parent="1" vertex="1">
          <mxGeometry x="445" y="645" width="200" height="30" as="geometry" />
        </mxCell>
        <mxCell id="I7gX6TklzmigMuzpeqTn-39" value="" style="endArrow=none;dashed=1;html=1;dashPattern=1 3;strokeWidth=2;rounded=0;entryX=0.5;entryY=1;entryDx=0;entryDy=0;" parent="1" target="I7gX6TklzmigMuzpeqTn-38" edge="1">
          <mxGeometry width="50" height="50" relative="1" as="geometry">
            <mxPoint x="890" y="990" as="sourcePoint" />
            <mxPoint x="890" y="460" as="targetPoint" />
          </mxGeometry>
        </mxCell>
        <mxCell id="I7gX6TklzmigMuzpeqTn-38" value="" style="html=1;points=[[0,0,0,0,5],[0,1,0,0,-5],[1,0,0,0,5],[1,1,0,0,-5]];perimeter=orthogonalPerimeter;outlineConnect=0;targetShapes=umlLifeline;portConstraint=eastwest;newEdgeStyle={&quot;curved&quot;:0,&quot;rounded&quot;:0};" parent="1" vertex="1">
          <mxGeometry x="885" y="675" width="10" height="30" as="geometry" />
        </mxCell>
        <mxCell id="I7gX6TklzmigMuzpeqTn-40" value="" style="endArrow=classic;html=1;rounded=0;entryX=0;entryY=0;entryDx=0;entryDy=5;entryPerimeter=0;" parent="1" source="I7gX6TklzmigMuzpeqTn-34" target="I7gX6TklzmigMuzpeqTn-38" edge="1">
          <mxGeometry width="50" height="50" relative="1" as="geometry">
            <mxPoint x="680" y="700" as="sourcePoint" />
            <mxPoint x="730" y="650" as="targetPoint" />
          </mxGeometry>
        </mxCell>
        <mxCell id="I7gX6TklzmigMuzpeqTn-41" value="6:Kiểm tra thông tin đăng nhập ở CSDL" style="text;html=1;align=center;verticalAlign=middle;resizable=0;points=[];autosize=1;strokeColor=none;fillColor=none;" parent="1" vertex="1">
          <mxGeometry x="645" y="650" width="230" height="30" as="geometry" />
        </mxCell>
        <mxCell id="HwJ8LK8OYXeAmico5oYo-1" value="Admin" style="shape=umlActor;verticalLabelPosition=bottom;verticalAlign=top;html=1;" vertex="1" parent="1">
          <mxGeometry x="1070" y="360" width="30" height="60" as="geometry" />
        </mxCell>
        <mxCell id="HwJ8LK8OYXeAmico5oYo-2" value="Giao diện website" style="shape=umlBoundary;whiteSpace=wrap;html=1;" vertex="1" parent="1">
          <mxGeometry x="1210" y="360" width="100" height="80" as="geometry" />
        </mxCell>
        <mxCell id="HwJ8LK8OYXeAmico5oYo-3" value="Giao diện danh sách sản phẩm" style="shape=umlBoundary;whiteSpace=wrap;html=1;" vertex="1" parent="1">
          <mxGeometry x="1400" y="360" width="100" height="80" as="geometry" />
        </mxCell>
        <mxCell id="HwJ8LK8OYXeAmico5oYo-4" value="Controler" style="ellipse;shape=umlControl;whiteSpace=wrap;html=1;" vertex="1" parent="1">
          <mxGeometry x="1620" y="360" width="70" height="80" as="geometry" />
        </mxCell>
        <mxCell id="HwJ8LK8OYXeAmico5oYo-5" value="" style="endArrow=none;dashed=1;html=1;dashPattern=1 3;strokeWidth=2;rounded=0;" edge="1" parent="1">
          <mxGeometry width="50" height="50" relative="1" as="geometry">
            <mxPoint x="1090" y="970" as="sourcePoint" />
            <mxPoint x="1090" y="460" as="targetPoint" />
          </mxGeometry>
        </mxCell>
        <mxCell id="HwJ8LK8OYXeAmico5oYo-6" value="" style="endArrow=none;dashed=1;html=1;dashPattern=1 3;strokeWidth=2;rounded=0;entryX=0.554;entryY=1.005;entryDx=0;entryDy=0;entryPerimeter=0;" edge="1" parent="1" target="HwJ8LK8OYXeAmico5oYo-2">
          <mxGeometry width="50" height="50" relative="1" as="geometry">
            <mxPoint x="1265" y="980" as="sourcePoint" />
            <mxPoint x="1249.66" y="470" as="targetPoint" />
          </mxGeometry>
        </mxCell>
        <mxCell id="HwJ8LK8OYXeAmico5oYo-7" value="" style="endArrow=none;dashed=1;html=1;dashPattern=1 3;strokeWidth=2;rounded=0;entryX=0.526;entryY=0.993;entryDx=0;entryDy=0;entryPerimeter=0;" edge="1" parent="1" source="HwJ8LK8OYXeAmico5oYo-17" target="HwJ8LK8OYXeAmico5oYo-3">
          <mxGeometry width="50" height="50" relative="1" as="geometry">
            <mxPoint x="1450" y="980" as="sourcePoint" />
            <mxPoint x="1419.5" y="470" as="targetPoint" />
          </mxGeometry>
        </mxCell>
        <mxCell id="HwJ8LK8OYXeAmico5oYo-8" value="" style="endArrow=none;dashed=1;html=1;dashPattern=1 3;strokeWidth=2;rounded=0;entryX=0.466;entryY=1.005;entryDx=0;entryDy=0;entryPerimeter=0;" edge="1" parent="1" target="HwJ8LK8OYXeAmico5oYo-4">
          <mxGeometry width="50" height="50" relative="1" as="geometry">
            <mxPoint x="1650" y="970" as="sourcePoint" />
            <mxPoint x="1594.5" y="470" as="targetPoint" />
          </mxGeometry>
        </mxCell>
        <mxCell id="HwJ8LK8OYXeAmico5oYo-9" value="" style="endArrow=none;dashed=1;html=1;dashPattern=1 3;strokeWidth=2;rounded=0;entryX=0.5;entryY=1;entryDx=0;entryDy=0;" edge="1" parent="1" source="HwJ8LK8OYXeAmico5oYo-26">
          <mxGeometry width="50" height="50" relative="1" as="geometry">
            <mxPoint x="1900" y="970" as="sourcePoint" />
            <mxPoint x="1900" y="440" as="targetPoint" />
          </mxGeometry>
        </mxCell>
        <mxCell id="HwJ8LK8OYXeAmico5oYo-10" value="" style="endArrow=classic;html=1;rounded=0;entryX=0;entryY=0;entryDx=0;entryDy=5;entryPerimeter=0;" edge="1" parent="1" target="HwJ8LK8OYXeAmico5oYo-12">
          <mxGeometry width="50" height="50" relative="1" as="geometry">
            <mxPoint x="1090" y="575" as="sourcePoint" />
            <mxPoint x="1250" y="580" as="targetPoint" />
          </mxGeometry>
        </mxCell>
        <mxCell id="HwJ8LK8OYXeAmico5oYo-11" value="1:Nhấp chọn quản lý sản phẩm" style="text;html=1;align=center;verticalAlign=middle;resizable=0;points=[];autosize=1;strokeColor=none;fillColor=none;" vertex="1" parent="1">
          <mxGeometry x="1070" y="543" width="190" height="30" as="geometry" />
        </mxCell>
        <mxCell id="HwJ8LK8OYXeAmico5oYo-12" value="" style="html=1;points=[[0,0,0,0,5],[0,1,0,0,-5],[1,0,0,0,5],[1,1,0,0,-5]];perimeter=orthogonalPerimeter;outlineConnect=0;targetShapes=umlLifeline;portConstraint=eastwest;newEdgeStyle={&quot;curved&quot;:0,&quot;rounded&quot;:0};" vertex="1" parent="1">
          <mxGeometry x="1255" y="570" width="10" height="30" as="geometry" />
        </mxCell>
        <mxCell id="HwJ8LK8OYXeAmico5oYo-13" value="" style="endArrow=classic;html=1;rounded=0;" edge="1" parent="1">
          <mxGeometry width="50" height="50" relative="1" as="geometry">
            <mxPoint x="1270" y="580" as="sourcePoint" />
            <mxPoint x="1450" y="580" as="targetPoint" />
          </mxGeometry>
        </mxCell>
        <mxCell id="HwJ8LK8OYXeAmico5oYo-14" value="2:Yêu cầu hiển thị&amp;nbsp;&lt;br&gt;form danh sách sản phẩm" style="text;html=1;align=center;verticalAlign=middle;resizable=0;points=[];autosize=1;strokeColor=none;fillColor=none;" vertex="1" parent="1">
          <mxGeometry x="1260" y="538" width="160" height="40" as="geometry" />
        </mxCell>
        <mxCell id="HwJ8LK8OYXeAmico5oYo-16" value="" style="endArrow=none;dashed=1;html=1;dashPattern=1 3;strokeWidth=2;rounded=0;entryX=0.526;entryY=0.993;entryDx=0;entryDy=0;entryPerimeter=0;" edge="1" parent="1" target="HwJ8LK8OYXeAmico5oYo-17">
          <mxGeometry width="50" height="50" relative="1" as="geometry">
            <mxPoint x="1450" y="980" as="sourcePoint" />
            <mxPoint x="1453" y="439" as="targetPoint" />
          </mxGeometry>
        </mxCell>
        <mxCell id="HwJ8LK8OYXeAmico5oYo-17" value="" style="html=1;points=[[0,0,0,0,5],[0,1,0,0,-5],[1,0,0,0,5],[1,1,0,0,-5]];perimeter=orthogonalPerimeter;outlineConnect=0;targetShapes=umlLifeline;portConstraint=eastwest;newEdgeStyle={&quot;curved&quot;:0,&quot;rounded&quot;:0};" vertex="1" parent="1">
          <mxGeometry x="1445" y="610" width="10" height="60" as="geometry" />
        </mxCell>
        <mxCell id="HwJ8LK8OYXeAmico5oYo-18" value="" style="endArrow=classic;html=1;rounded=0;entryX=-0.001;entryY=0.942;entryDx=0;entryDy=0;entryPerimeter=0;" edge="1" parent="1">
          <mxGeometry width="50" height="50" relative="1" as="geometry">
            <mxPoint x="1090" y="620" as="sourcePoint" />
            <mxPoint x="1444.8000000000002" y="622.6800000000001" as="targetPoint" />
          </mxGeometry>
        </mxCell>
        <mxCell id="HwJ8LK8OYXeAmico5oYo-19" value="3:Chọn sản phẩm cần xóa" style="text;html=1;align=center;verticalAlign=middle;resizable=0;points=[];autosize=1;strokeColor=none;fillColor=none;" vertex="1" parent="1">
          <mxGeometry x="1090" y="590" width="160" height="30" as="geometry" />
        </mxCell>
        <mxCell id="HwJ8LK8OYXeAmico5oYo-21" value="" style="endArrow=none;dashed=1;html=1;dashPattern=1 3;strokeWidth=2;rounded=0;entryX=0.466;entryY=1.005;entryDx=0;entryDy=0;entryPerimeter=0;" edge="1" parent="1" target="HwJ8LK8OYXeAmico5oYo-22">
          <mxGeometry width="50" height="50" relative="1" as="geometry">
            <mxPoint x="1650" y="970" as="sourcePoint" />
            <mxPoint x="1653" y="440" as="targetPoint" />
          </mxGeometry>
        </mxCell>
        <mxCell id="HwJ8LK8OYXeAmico5oYo-22" value="" style="html=1;points=[[0,0,0,0,5],[0,1,0,0,-5],[1,0,0,0,5],[1,1,0,0,-5]];perimeter=orthogonalPerimeter;outlineConnect=0;targetShapes=umlLifeline;portConstraint=eastwest;newEdgeStyle={&quot;curved&quot;:0,&quot;rounded&quot;:0};" vertex="1" parent="1">
          <mxGeometry x="1645" y="650" width="10" height="30" as="geometry" />
        </mxCell>
        <mxCell id="HwJ8LK8OYXeAmico5oYo-23" value="" style="endArrow=classic;html=1;rounded=0;" edge="1" parent="1" source="HwJ8LK8OYXeAmico5oYo-17" target="HwJ8LK8OYXeAmico5oYo-22">
          <mxGeometry width="50" height="50" relative="1" as="geometry">
            <mxPoint x="1630" y="740" as="sourcePoint" />
            <mxPoint x="1680" y="690" as="targetPoint" />
          </mxGeometry>
        </mxCell>
        <mxCell id="HwJ8LK8OYXeAmico5oYo-24" value="4:Gửi yêu cầu xóa đến Controler" style="text;html=1;align=center;verticalAlign=middle;resizable=0;points=[];autosize=1;strokeColor=none;fillColor=none;" vertex="1" parent="1">
          <mxGeometry x="1455" y="625" width="200" height="30" as="geometry" />
        </mxCell>
        <mxCell id="HwJ8LK8OYXeAmico5oYo-25" value="" style="endArrow=none;dashed=1;html=1;dashPattern=1 3;strokeWidth=2;rounded=0;entryX=0.5;entryY=1;entryDx=0;entryDy=0;" edge="1" parent="1" target="HwJ8LK8OYXeAmico5oYo-26">
          <mxGeometry width="50" height="50" relative="1" as="geometry">
            <mxPoint x="1900" y="970" as="sourcePoint" />
            <mxPoint x="1900" y="440" as="targetPoint" />
          </mxGeometry>
        </mxCell>
        <mxCell id="HwJ8LK8OYXeAmico5oYo-26" value="" style="html=1;points=[[0,0,0,0,5],[0,1,0,0,-5],[1,0,0,0,5],[1,1,0,0,-5]];perimeter=orthogonalPerimeter;outlineConnect=0;targetShapes=umlLifeline;portConstraint=eastwest;newEdgeStyle={&quot;curved&quot;:0,&quot;rounded&quot;:0};" vertex="1" parent="1">
          <mxGeometry x="1895" y="655" width="10" height="30" as="geometry" />
        </mxCell>
        <mxCell id="HwJ8LK8OYXeAmico5oYo-27" value="" style="endArrow=classic;html=1;rounded=0;entryX=0;entryY=0;entryDx=0;entryDy=5;entryPerimeter=0;" edge="1" parent="1" source="HwJ8LK8OYXeAmico5oYo-22" target="HwJ8LK8OYXeAmico5oYo-26">
          <mxGeometry width="50" height="50" relative="1" as="geometry">
            <mxPoint x="1690" y="680" as="sourcePoint" />
            <mxPoint x="1740" y="630" as="targetPoint" />
          </mxGeometry>
        </mxCell>
        <mxCell id="HwJ8LK8OYXeAmico5oYo-28" value="5:Gửi yêu cầu xóa sản phẩm" style="text;html=1;align=center;verticalAlign=middle;resizable=0;points=[];autosize=1;strokeColor=none;fillColor=none;" vertex="1" parent="1">
          <mxGeometry x="1680" y="630" width="180" height="30" as="geometry" />
        </mxCell>
        <mxCell id="HwJ8LK8OYXeAmico5oYo-29" value="Lớp thông tin sản phẩm" style="ellipse;shape=umlEntity;whiteSpace=wrap;html=1;" vertex="1" parent="1">
          <mxGeometry x="1860" y="360" width="80" height="80" as="geometry" />
        </mxCell>
        <mxCell id="HwJ8LK8OYXeAmico5oYo-31" value="" style="endArrow=block;dashed=1;endFill=0;endSize=12;html=1;rounded=0;entryX=1;entryY=1;entryDx=0;entryDy=-5;entryPerimeter=0;" edge="1" parent="1" source="HwJ8LK8OYXeAmico5oYo-26" target="HwJ8LK8OYXeAmico5oYo-26">
          <mxGeometry width="160" relative="1" as="geometry">
            <mxPoint x="1960" y="660" as="sourcePoint" />
            <mxPoint x="2030" y="680" as="targetPoint" />
            <Array as="points">
              <mxPoint x="1970" y="670" />
              <mxPoint x="1960" y="680" />
            </Array>
          </mxGeometry>
        </mxCell>
        <mxCell id="HwJ8LK8OYXeAmico5oYo-32" value="6:Xóa sản phẩm&lt;br&gt;&amp;nbsp;trong CSDL" style="text;html=1;align=center;verticalAlign=middle;resizable=0;points=[];autosize=1;strokeColor=none;fillColor=none;" vertex="1" parent="1">
          <mxGeometry x="1895" y="630" width="110" height="40" as="geometry" />
        </mxCell>
        <mxCell id="HwJ8LK8OYXeAmico5oYo-33" value="" style="endArrow=block;dashed=1;endFill=0;endSize=12;html=1;rounded=0;" edge="1" parent="1">
          <mxGeometry width="160" relative="1" as="geometry">
            <mxPoint x="1900" y="810" as="sourcePoint" />
            <mxPoint x="1650" y="810" as="targetPoint" />
          </mxGeometry>
        </mxCell>
        <mxCell id="HwJ8LK8OYXeAmico5oYo-34" value="" style="endArrow=block;dashed=1;endFill=0;endSize=12;html=1;rounded=0;" edge="1" parent="1">
          <mxGeometry width="160" relative="1" as="geometry">
            <mxPoint x="1650" y="810" as="sourcePoint" />
            <mxPoint x="1450" y="810" as="targetPoint" />
          </mxGeometry>
        </mxCell>
        <mxCell id="HwJ8LK8OYXeAmico5oYo-35" value="7:Trả về kết quả" style="text;html=1;align=center;verticalAlign=middle;resizable=0;points=[];autosize=1;strokeColor=none;fillColor=none;" vertex="1" parent="1">
          <mxGeometry x="1665" y="780" width="110" height="30" as="geometry" />
        </mxCell>
        <mxCell id="HwJ8LK8OYXeAmico5oYo-36" value="8:Thông báo thành công" style="text;html=1;align=center;verticalAlign=middle;resizable=0;points=[];autosize=1;strokeColor=none;fillColor=none;" vertex="1" parent="1">
          <mxGeometry x="1455" y="780" width="150" height="30" as="geometry" />
        </mxCell>
        <mxCell id="HwJ8LK8OYXeAmico5oYo-37" value="Admin" style="shape=umlActor;verticalLabelPosition=bottom;verticalAlign=top;html=1;" vertex="1" parent="1">
          <mxGeometry x="2140" y="370" width="30" height="60" as="geometry" />
        </mxCell>
        <mxCell id="HwJ8LK8OYXeAmico5oYo-38" value="Giao diện website" style="shape=umlBoundary;whiteSpace=wrap;html=1;" vertex="1" parent="1">
          <mxGeometry x="2280" y="370" width="100" height="80" as="geometry" />
        </mxCell>
        <mxCell id="HwJ8LK8OYXeAmico5oYo-39" value="Giao diện danh sách tài khoản" style="shape=umlBoundary;whiteSpace=wrap;html=1;" vertex="1" parent="1">
          <mxGeometry x="2470" y="370" width="100" height="80" as="geometry" />
        </mxCell>
        <mxCell id="HwJ8LK8OYXeAmico5oYo-40" value="Controler" style="ellipse;shape=umlControl;whiteSpace=wrap;html=1;" vertex="1" parent="1">
          <mxGeometry x="2690" y="370" width="70" height="80" as="geometry" />
        </mxCell>
        <mxCell id="HwJ8LK8OYXeAmico5oYo-41" value="" style="endArrow=none;dashed=1;html=1;dashPattern=1 3;strokeWidth=2;rounded=0;" edge="1" parent="1">
          <mxGeometry width="50" height="50" relative="1" as="geometry">
            <mxPoint x="2160" y="980" as="sourcePoint" />
            <mxPoint x="2160" y="470" as="targetPoint" />
          </mxGeometry>
        </mxCell>
        <mxCell id="HwJ8LK8OYXeAmico5oYo-42" value="" style="endArrow=none;dashed=1;html=1;dashPattern=1 3;strokeWidth=2;rounded=0;entryX=0.554;entryY=1.005;entryDx=0;entryDy=0;entryPerimeter=0;" edge="1" parent="1" target="HwJ8LK8OYXeAmico5oYo-38">
          <mxGeometry width="50" height="50" relative="1" as="geometry">
            <mxPoint x="2335" y="990" as="sourcePoint" />
            <mxPoint x="2319.66" y="480" as="targetPoint" />
          </mxGeometry>
        </mxCell>
        <mxCell id="HwJ8LK8OYXeAmico5oYo-43" value="" style="endArrow=none;dashed=1;html=1;dashPattern=1 3;strokeWidth=2;rounded=0;entryX=0.526;entryY=0.993;entryDx=0;entryDy=0;entryPerimeter=0;" edge="1" parent="1" source="HwJ8LK8OYXeAmico5oYo-52" target="HwJ8LK8OYXeAmico5oYo-39">
          <mxGeometry width="50" height="50" relative="1" as="geometry">
            <mxPoint x="2520" y="990" as="sourcePoint" />
            <mxPoint x="2489.5" y="480" as="targetPoint" />
          </mxGeometry>
        </mxCell>
        <mxCell id="HwJ8LK8OYXeAmico5oYo-44" value="" style="endArrow=none;dashed=1;html=1;dashPattern=1 3;strokeWidth=2;rounded=0;entryX=0.466;entryY=1.005;entryDx=0;entryDy=0;entryPerimeter=0;" edge="1" parent="1" target="HwJ8LK8OYXeAmico5oYo-40">
          <mxGeometry width="50" height="50" relative="1" as="geometry">
            <mxPoint x="2720" y="980" as="sourcePoint" />
            <mxPoint x="2664.5" y="480" as="targetPoint" />
          </mxGeometry>
        </mxCell>
        <mxCell id="HwJ8LK8OYXeAmico5oYo-45" value="" style="endArrow=none;dashed=1;html=1;dashPattern=1 3;strokeWidth=2;rounded=0;entryX=0.5;entryY=1;entryDx=0;entryDy=0;" edge="1" parent="1" source="HwJ8LK8OYXeAmico5oYo-60">
          <mxGeometry width="50" height="50" relative="1" as="geometry">
            <mxPoint x="2970" y="980" as="sourcePoint" />
            <mxPoint x="2970" y="450" as="targetPoint" />
          </mxGeometry>
        </mxCell>
        <mxCell id="HwJ8LK8OYXeAmico5oYo-46" value="" style="endArrow=classic;html=1;rounded=0;entryX=0;entryY=0;entryDx=0;entryDy=5;entryPerimeter=0;" edge="1" parent="1" target="HwJ8LK8OYXeAmico5oYo-48">
          <mxGeometry width="50" height="50" relative="1" as="geometry">
            <mxPoint x="2160" y="585" as="sourcePoint" />
            <mxPoint x="2320" y="590" as="targetPoint" />
          </mxGeometry>
        </mxCell>
        <mxCell id="HwJ8LK8OYXeAmico5oYo-47" value="1:Nhấp chọn quản lý tài khoản" style="text;html=1;align=center;verticalAlign=middle;resizable=0;points=[];autosize=1;strokeColor=none;fillColor=none;" vertex="1" parent="1">
          <mxGeometry x="2140" y="553" width="190" height="30" as="geometry" />
        </mxCell>
        <mxCell id="HwJ8LK8OYXeAmico5oYo-48" value="" style="html=1;points=[[0,0,0,0,5],[0,1,0,0,-5],[1,0,0,0,5],[1,1,0,0,-5]];perimeter=orthogonalPerimeter;outlineConnect=0;targetShapes=umlLifeline;portConstraint=eastwest;newEdgeStyle={&quot;curved&quot;:0,&quot;rounded&quot;:0};" vertex="1" parent="1">
          <mxGeometry x="2325" y="580" width="10" height="30" as="geometry" />
        </mxCell>
        <mxCell id="HwJ8LK8OYXeAmico5oYo-49" value="" style="endArrow=classic;html=1;rounded=0;" edge="1" parent="1">
          <mxGeometry width="50" height="50" relative="1" as="geometry">
            <mxPoint x="2340" y="590" as="sourcePoint" />
            <mxPoint x="2520" y="590" as="targetPoint" />
          </mxGeometry>
        </mxCell>
        <mxCell id="HwJ8LK8OYXeAmico5oYo-50" value="2:Yêu cầu hiển thị&amp;nbsp;&lt;br&gt;form tài khoản" style="text;html=1;align=center;verticalAlign=middle;resizable=0;points=[];autosize=1;strokeColor=none;fillColor=none;" vertex="1" parent="1">
          <mxGeometry x="2350" y="548" width="120" height="40" as="geometry" />
        </mxCell>
        <mxCell id="HwJ8LK8OYXeAmico5oYo-51" value="" style="endArrow=none;dashed=1;html=1;dashPattern=1 3;strokeWidth=2;rounded=0;entryX=0.526;entryY=0.993;entryDx=0;entryDy=0;entryPerimeter=0;" edge="1" parent="1" target="HwJ8LK8OYXeAmico5oYo-52">
          <mxGeometry width="50" height="50" relative="1" as="geometry">
            <mxPoint x="2520" y="990" as="sourcePoint" />
            <mxPoint x="2523" y="449" as="targetPoint" />
          </mxGeometry>
        </mxCell>
        <mxCell id="HwJ8LK8OYXeAmico5oYo-52" value="" style="html=1;points=[[0,0,0,0,5],[0,1,0,0,-5],[1,0,0,0,5],[1,1,0,0,-5]];perimeter=orthogonalPerimeter;outlineConnect=0;targetShapes=umlLifeline;portConstraint=eastwest;newEdgeStyle={&quot;curved&quot;:0,&quot;rounded&quot;:0};" vertex="1" parent="1">
          <mxGeometry x="2515" y="620" width="10" height="60" as="geometry" />
        </mxCell>
        <mxCell id="HwJ8LK8OYXeAmico5oYo-53" value="" style="endArrow=classic;html=1;rounded=0;entryX=-0.001;entryY=0.942;entryDx=0;entryDy=0;entryPerimeter=0;" edge="1" parent="1">
          <mxGeometry width="50" height="50" relative="1" as="geometry">
            <mxPoint x="2160" y="630" as="sourcePoint" />
            <mxPoint x="2514.8" y="632.6800000000001" as="targetPoint" />
          </mxGeometry>
        </mxCell>
        <mxCell id="HwJ8LK8OYXeAmico5oYo-54" value="3:Chọn tài khoản cần xóa" style="text;html=1;align=center;verticalAlign=middle;resizable=0;points=[];autosize=1;strokeColor=none;fillColor=none;" vertex="1" parent="1">
          <mxGeometry x="2160" y="600" width="160" height="30" as="geometry" />
        </mxCell>
        <mxCell id="HwJ8LK8OYXeAmico5oYo-55" value="" style="endArrow=none;dashed=1;html=1;dashPattern=1 3;strokeWidth=2;rounded=0;entryX=0.466;entryY=1.005;entryDx=0;entryDy=0;entryPerimeter=0;" edge="1" parent="1" target="HwJ8LK8OYXeAmico5oYo-56">
          <mxGeometry width="50" height="50" relative="1" as="geometry">
            <mxPoint x="2720" y="980" as="sourcePoint" />
            <mxPoint x="2723" y="450" as="targetPoint" />
          </mxGeometry>
        </mxCell>
        <mxCell id="HwJ8LK8OYXeAmico5oYo-56" value="" style="html=1;points=[[0,0,0,0,5],[0,1,0,0,-5],[1,0,0,0,5],[1,1,0,0,-5]];perimeter=orthogonalPerimeter;outlineConnect=0;targetShapes=umlLifeline;portConstraint=eastwest;newEdgeStyle={&quot;curved&quot;:0,&quot;rounded&quot;:0};" vertex="1" parent="1">
          <mxGeometry x="2715" y="660" width="10" height="30" as="geometry" />
        </mxCell>
        <mxCell id="HwJ8LK8OYXeAmico5oYo-57" value="" style="endArrow=classic;html=1;rounded=0;" edge="1" parent="1" source="HwJ8LK8OYXeAmico5oYo-52" target="HwJ8LK8OYXeAmico5oYo-56">
          <mxGeometry width="50" height="50" relative="1" as="geometry">
            <mxPoint x="2700" y="750" as="sourcePoint" />
            <mxPoint x="2750" y="700" as="targetPoint" />
          </mxGeometry>
        </mxCell>
        <mxCell id="HwJ8LK8OYXeAmico5oYo-58" value="4:Gửi yêu cầu xóa đến Controler" style="text;html=1;align=center;verticalAlign=middle;resizable=0;points=[];autosize=1;strokeColor=none;fillColor=none;" vertex="1" parent="1">
          <mxGeometry x="2525" y="635" width="200" height="30" as="geometry" />
        </mxCell>
        <mxCell id="HwJ8LK8OYXeAmico5oYo-59" value="" style="endArrow=none;dashed=1;html=1;dashPattern=1 3;strokeWidth=2;rounded=0;entryX=0.5;entryY=1;entryDx=0;entryDy=0;" edge="1" parent="1" target="HwJ8LK8OYXeAmico5oYo-60">
          <mxGeometry width="50" height="50" relative="1" as="geometry">
            <mxPoint x="2970" y="980" as="sourcePoint" />
            <mxPoint x="2970" y="450" as="targetPoint" />
          </mxGeometry>
        </mxCell>
        <mxCell id="HwJ8LK8OYXeAmico5oYo-60" value="" style="html=1;points=[[0,0,0,0,5],[0,1,0,0,-5],[1,0,0,0,5],[1,1,0,0,-5]];perimeter=orthogonalPerimeter;outlineConnect=0;targetShapes=umlLifeline;portConstraint=eastwest;newEdgeStyle={&quot;curved&quot;:0,&quot;rounded&quot;:0};" vertex="1" parent="1">
          <mxGeometry x="2965" y="665" width="10" height="30" as="geometry" />
        </mxCell>
        <mxCell id="HwJ8LK8OYXeAmico5oYo-61" value="" style="endArrow=classic;html=1;rounded=0;entryX=0;entryY=0;entryDx=0;entryDy=5;entryPerimeter=0;" edge="1" parent="1" source="HwJ8LK8OYXeAmico5oYo-56" target="HwJ8LK8OYXeAmico5oYo-60">
          <mxGeometry width="50" height="50" relative="1" as="geometry">
            <mxPoint x="2760" y="690" as="sourcePoint" />
            <mxPoint x="2810" y="640" as="targetPoint" />
          </mxGeometry>
        </mxCell>
        <mxCell id="HwJ8LK8OYXeAmico5oYo-62" value="5:Gửi yêu cầu xóa tài khoản" style="text;html=1;align=center;verticalAlign=middle;resizable=0;points=[];autosize=1;strokeColor=none;fillColor=none;" vertex="1" parent="1">
          <mxGeometry x="2755" y="640" width="170" height="30" as="geometry" />
        </mxCell>
        <mxCell id="HwJ8LK8OYXeAmico5oYo-63" value="Lớp thông tin tài khoản" style="ellipse;shape=umlEntity;whiteSpace=wrap;html=1;" vertex="1" parent="1">
          <mxGeometry x="2930" y="370" width="80" height="80" as="geometry" />
        </mxCell>
        <mxCell id="HwJ8LK8OYXeAmico5oYo-64" value="" style="endArrow=block;dashed=1;endFill=0;endSize=12;html=1;rounded=0;entryX=1;entryY=1;entryDx=0;entryDy=-5;entryPerimeter=0;" edge="1" parent="1" source="HwJ8LK8OYXeAmico5oYo-60" target="HwJ8LK8OYXeAmico5oYo-60">
          <mxGeometry width="160" relative="1" as="geometry">
            <mxPoint x="3030" y="670" as="sourcePoint" />
            <mxPoint x="3100" y="690" as="targetPoint" />
            <Array as="points">
              <mxPoint x="3040" y="680" />
              <mxPoint x="3030" y="690" />
            </Array>
          </mxGeometry>
        </mxCell>
        <mxCell id="HwJ8LK8OYXeAmico5oYo-65" value="6:Xóa tài khoản&lt;br&gt;&amp;nbsp;trong CSDL" style="text;html=1;align=center;verticalAlign=middle;resizable=0;points=[];autosize=1;strokeColor=none;fillColor=none;" vertex="1" parent="1">
          <mxGeometry x="2965" y="640" width="110" height="40" as="geometry" />
        </mxCell>
        <mxCell id="HwJ8LK8OYXeAmico5oYo-66" value="" style="endArrow=block;dashed=1;endFill=0;endSize=12;html=1;rounded=0;" edge="1" parent="1">
          <mxGeometry width="160" relative="1" as="geometry">
            <mxPoint x="2970" y="820" as="sourcePoint" />
            <mxPoint x="2720" y="820" as="targetPoint" />
          </mxGeometry>
        </mxCell>
        <mxCell id="HwJ8LK8OYXeAmico5oYo-67" value="" style="endArrow=block;dashed=1;endFill=0;endSize=12;html=1;rounded=0;" edge="1" parent="1">
          <mxGeometry width="160" relative="1" as="geometry">
            <mxPoint x="2720" y="820" as="sourcePoint" />
            <mxPoint x="2520" y="820" as="targetPoint" />
          </mxGeometry>
        </mxCell>
        <mxCell id="HwJ8LK8OYXeAmico5oYo-68" value="7:Trả về kết quả" style="text;html=1;align=center;verticalAlign=middle;resizable=0;points=[];autosize=1;strokeColor=none;fillColor=none;" vertex="1" parent="1">
          <mxGeometry x="2735" y="790" width="110" height="30" as="geometry" />
        </mxCell>
        <mxCell id="HwJ8LK8OYXeAmico5oYo-69" value="8:Thông báo thành công" style="text;html=1;align=center;verticalAlign=middle;resizable=0;points=[];autosize=1;strokeColor=none;fillColor=none;" vertex="1" parent="1">
          <mxGeometry x="2525" y="790" width="150" height="30" as="geometry" />
        </mxCell>
        <mxCell id="HwJ8LK8OYXeAmico5oYo-70" value="Admin" style="shape=umlActor;verticalLabelPosition=bottom;verticalAlign=top;html=1;" vertex="1" parent="1">
          <mxGeometry x="10" y="1060" width="30" height="60" as="geometry" />
        </mxCell>
        <mxCell id="HwJ8LK8OYXeAmico5oYo-71" value="Giao diện website" style="shape=umlBoundary;whiteSpace=wrap;html=1;" vertex="1" parent="1">
          <mxGeometry x="150" y="1060" width="100" height="80" as="geometry" />
        </mxCell>
        <mxCell id="HwJ8LK8OYXeAmico5oYo-72" value="Giao diện thống kê" style="shape=umlBoundary;whiteSpace=wrap;html=1;" vertex="1" parent="1">
          <mxGeometry x="340" y="1060" width="100" height="80" as="geometry" />
        </mxCell>
        <mxCell id="HwJ8LK8OYXeAmico5oYo-73" value="Controler" style="ellipse;shape=umlControl;whiteSpace=wrap;html=1;" vertex="1" parent="1">
          <mxGeometry x="560" y="1060" width="70" height="80" as="geometry" />
        </mxCell>
        <mxCell id="HwJ8LK8OYXeAmico5oYo-74" value="" style="endArrow=none;dashed=1;html=1;dashPattern=1 3;strokeWidth=2;rounded=0;" edge="1" parent="1">
          <mxGeometry width="50" height="50" relative="1" as="geometry">
            <mxPoint x="30" y="1670" as="sourcePoint" />
            <mxPoint x="30" y="1160" as="targetPoint" />
          </mxGeometry>
        </mxCell>
        <mxCell id="HwJ8LK8OYXeAmico5oYo-75" value="" style="endArrow=none;dashed=1;html=1;dashPattern=1 3;strokeWidth=2;rounded=0;entryX=0.554;entryY=1.005;entryDx=0;entryDy=0;entryPerimeter=0;" edge="1" parent="1" target="HwJ8LK8OYXeAmico5oYo-71">
          <mxGeometry width="50" height="50" relative="1" as="geometry">
            <mxPoint x="205" y="1680" as="sourcePoint" />
            <mxPoint x="189.65999999999985" y="1170" as="targetPoint" />
          </mxGeometry>
        </mxCell>
        <mxCell id="HwJ8LK8OYXeAmico5oYo-76" value="" style="endArrow=none;dashed=1;html=1;dashPattern=1 3;strokeWidth=2;rounded=0;entryX=0.526;entryY=0.993;entryDx=0;entryDy=0;entryPerimeter=0;" edge="1" parent="1" target="HwJ8LK8OYXeAmico5oYo-72">
          <mxGeometry width="50" height="50" relative="1" as="geometry">
            <mxPoint x="390" y="1680" as="sourcePoint" />
            <mxPoint x="359.5" y="1170" as="targetPoint" />
          </mxGeometry>
        </mxCell>
        <mxCell id="HwJ8LK8OYXeAmico5oYo-77" value="" style="endArrow=none;dashed=1;html=1;dashPattern=1 3;strokeWidth=2;rounded=0;entryX=0.466;entryY=1.005;entryDx=0;entryDy=0;entryPerimeter=0;" edge="1" parent="1" target="HwJ8LK8OYXeAmico5oYo-73">
          <mxGeometry width="50" height="50" relative="1" as="geometry">
            <mxPoint x="590" y="1670" as="sourcePoint" />
            <mxPoint x="534.5" y="1170" as="targetPoint" />
          </mxGeometry>
        </mxCell>
        <mxCell id="HwJ8LK8OYXeAmico5oYo-78" value="" style="endArrow=none;dashed=1;html=1;dashPattern=1 3;strokeWidth=2;rounded=0;entryX=0.5;entryY=1;entryDx=0;entryDy=0;" edge="1" parent="1" source="HwJ8LK8OYXeAmico5oYo-93">
          <mxGeometry width="50" height="50" relative="1" as="geometry">
            <mxPoint x="840" y="1670" as="sourcePoint" />
            <mxPoint x="840" y="1140" as="targetPoint" />
          </mxGeometry>
        </mxCell>
        <mxCell id="HwJ8LK8OYXeAmico5oYo-79" value="" style="endArrow=classic;html=1;rounded=0;entryX=0;entryY=0;entryDx=0;entryDy=5;entryPerimeter=0;" edge="1" parent="1" target="HwJ8LK8OYXeAmico5oYo-81">
          <mxGeometry width="50" height="50" relative="1" as="geometry">
            <mxPoint x="30" y="1275" as="sourcePoint" />
            <mxPoint x="190" y="1280" as="targetPoint" />
          </mxGeometry>
        </mxCell>
        <mxCell id="HwJ8LK8OYXeAmico5oYo-80" value="1:Đăng nhập tài khoản" style="text;html=1;align=center;verticalAlign=middle;resizable=0;points=[];autosize=1;strokeColor=none;fillColor=none;" vertex="1" parent="1">
          <mxGeometry x="35" y="1243" width="140" height="30" as="geometry" />
        </mxCell>
        <mxCell id="HwJ8LK8OYXeAmico5oYo-81" value="" style="html=1;points=[[0,0,0,0,5],[0,1,0,0,-5],[1,0,0,0,5],[1,1,0,0,-5]];perimeter=orthogonalPerimeter;outlineConnect=0;targetShapes=umlLifeline;portConstraint=eastwest;newEdgeStyle={&quot;curved&quot;:0,&quot;rounded&quot;:0};" vertex="1" parent="1">
          <mxGeometry x="195" y="1270" width="10" height="30" as="geometry" />
        </mxCell>
        <mxCell id="HwJ8LK8OYXeAmico5oYo-82" value="" style="endArrow=classic;html=1;rounded=0;" edge="1" parent="1">
          <mxGeometry width="50" height="50" relative="1" as="geometry">
            <mxPoint x="210" y="1280" as="sourcePoint" />
            <mxPoint x="390" y="1280" as="targetPoint" />
          </mxGeometry>
        </mxCell>
        <mxCell id="HwJ8LK8OYXeAmico5oYo-83" value="2:Yêu cầu hiển thị&amp;nbsp;&lt;br&gt;form thống kê" style="text;html=1;align=center;verticalAlign=middle;resizable=0;points=[];autosize=1;strokeColor=none;fillColor=none;" vertex="1" parent="1">
          <mxGeometry x="220" y="1238" width="120" height="40" as="geometry" />
        </mxCell>
        <mxCell id="HwJ8LK8OYXeAmico5oYo-88" value="" style="endArrow=none;dashed=1;html=1;dashPattern=1 3;strokeWidth=2;rounded=0;entryX=0.466;entryY=1.005;entryDx=0;entryDy=0;entryPerimeter=0;" edge="1" parent="1" target="HwJ8LK8OYXeAmico5oYo-89">
          <mxGeometry width="50" height="50" relative="1" as="geometry">
            <mxPoint x="590" y="1670" as="sourcePoint" />
            <mxPoint x="593" y="1140" as="targetPoint" />
          </mxGeometry>
        </mxCell>
        <mxCell id="HwJ8LK8OYXeAmico5oYo-89" value="" style="html=1;points=[[0,0,0,0,5],[0,1,0,0,-5],[1,0,0,0,5],[1,1,0,0,-5]];perimeter=orthogonalPerimeter;outlineConnect=0;targetShapes=umlLifeline;portConstraint=eastwest;newEdgeStyle={&quot;curved&quot;:0,&quot;rounded&quot;:0};" vertex="1" parent="1">
          <mxGeometry x="585" y="1350" width="10" height="30" as="geometry" />
        </mxCell>
        <mxCell id="HwJ8LK8OYXeAmico5oYo-90" value="" style="endArrow=classic;html=1;rounded=0;" edge="1" parent="1" target="HwJ8LK8OYXeAmico5oYo-89">
          <mxGeometry width="50" height="50" relative="1" as="geometry">
            <mxPoint x="395" y="1350" as="sourcePoint" />
            <mxPoint x="620" y="1390" as="targetPoint" />
          </mxGeometry>
        </mxCell>
        <mxCell id="HwJ8LK8OYXeAmico5oYo-91" value="4:Gửi yêu cầu lấy báo cáo&lt;br&gt;thống kê đến Controler" style="text;html=1;align=center;verticalAlign=middle;resizable=0;points=[];autosize=1;strokeColor=none;fillColor=none;" vertex="1" parent="1">
          <mxGeometry x="415" y="1310" width="160" height="40" as="geometry" />
        </mxCell>
        <mxCell id="HwJ8LK8OYXeAmico5oYo-92" value="" style="endArrow=none;dashed=1;html=1;dashPattern=1 3;strokeWidth=2;rounded=0;entryX=0.5;entryY=1;entryDx=0;entryDy=0;" edge="1" parent="1" target="HwJ8LK8OYXeAmico5oYo-93">
          <mxGeometry width="50" height="50" relative="1" as="geometry">
            <mxPoint x="840" y="1670" as="sourcePoint" />
            <mxPoint x="840" y="1140" as="targetPoint" />
          </mxGeometry>
        </mxCell>
        <mxCell id="HwJ8LK8OYXeAmico5oYo-93" value="" style="html=1;points=[[0,0,0,0,5],[0,1,0,0,-5],[1,0,0,0,5],[1,1,0,0,-5]];perimeter=orthogonalPerimeter;outlineConnect=0;targetShapes=umlLifeline;portConstraint=eastwest;newEdgeStyle={&quot;curved&quot;:0,&quot;rounded&quot;:0};" vertex="1" parent="1">
          <mxGeometry x="835" y="1355" width="10" height="30" as="geometry" />
        </mxCell>
        <mxCell id="HwJ8LK8OYXeAmico5oYo-94" value="" style="endArrow=classic;html=1;rounded=0;entryX=0;entryY=0;entryDx=0;entryDy=5;entryPerimeter=0;" edge="1" parent="1" source="HwJ8LK8OYXeAmico5oYo-89" target="HwJ8LK8OYXeAmico5oYo-93">
          <mxGeometry width="50" height="50" relative="1" as="geometry">
            <mxPoint x="630" y="1380" as="sourcePoint" />
            <mxPoint x="680" y="1330" as="targetPoint" />
          </mxGeometry>
        </mxCell>
        <mxCell id="HwJ8LK8OYXeAmico5oYo-95" value="5:Gửi yêu cầu&amp;nbsp;&lt;br&gt;danh sách thống kê" style="text;html=1;align=center;verticalAlign=middle;resizable=0;points=[];autosize=1;strokeColor=none;fillColor=none;" vertex="1" parent="1">
          <mxGeometry x="650" y="1325" width="130" height="40" as="geometry" />
        </mxCell>
        <mxCell id="HwJ8LK8OYXeAmico5oYo-96" value="Lớp thông tin thống kê" style="ellipse;shape=umlEntity;whiteSpace=wrap;html=1;" vertex="1" parent="1">
          <mxGeometry x="800" y="1060" width="80" height="80" as="geometry" />
        </mxCell>
        <mxCell id="HwJ8LK8OYXeAmico5oYo-99" value="" style="endArrow=block;dashed=1;endFill=0;endSize=12;html=1;rounded=0;" edge="1" parent="1">
          <mxGeometry width="160" relative="1" as="geometry">
            <mxPoint x="840" y="1510" as="sourcePoint" />
            <mxPoint x="590" y="1510" as="targetPoint" />
          </mxGeometry>
        </mxCell>
        <mxCell id="HwJ8LK8OYXeAmico5oYo-100" value="" style="endArrow=block;dashed=1;endFill=0;endSize=12;html=1;rounded=0;" edge="1" parent="1">
          <mxGeometry width="160" relative="1" as="geometry">
            <mxPoint x="590" y="1510" as="sourcePoint" />
            <mxPoint x="390" y="1510" as="targetPoint" />
          </mxGeometry>
        </mxCell>
        <mxCell id="HwJ8LK8OYXeAmico5oYo-101" value="7:Trả về kết quả" style="text;html=1;align=center;verticalAlign=middle;resizable=0;points=[];autosize=1;strokeColor=none;fillColor=none;" vertex="1" parent="1">
          <mxGeometry x="605" y="1480" width="110" height="30" as="geometry" />
        </mxCell>
        <mxCell id="HwJ8LK8OYXeAmico5oYo-102" value="8:Trả về thống kê doanh thu&lt;div&gt;&lt;br&gt;&lt;/div&gt;" style="text;html=1;align=center;verticalAlign=middle;resizable=0;points=[];autosize=1;strokeColor=none;fillColor=none;" vertex="1" parent="1">
          <mxGeometry x="385" y="1475" width="170" height="40" as="geometry" />
        </mxCell>
        <mxCell id="HwJ8LK8OYXeAmico5oYo-107" value="Người dùng" style="shape=umlActor;verticalLabelPosition=bottom;verticalAlign=top;html=1;" vertex="1" parent="1">
          <mxGeometry x="1060" y="1050" width="30" height="60" as="geometry" />
        </mxCell>
        <mxCell id="HwJ8LK8OYXeAmico5oYo-108" value="Giao diện website" style="shape=umlBoundary;whiteSpace=wrap;html=1;" vertex="1" parent="1">
          <mxGeometry x="1190" y="1050" width="100" height="80" as="geometry" />
        </mxCell>
        <mxCell id="HwJ8LK8OYXeAmico5oYo-110" value="Controler" style="ellipse;shape=umlControl;whiteSpace=wrap;html=1;" vertex="1" parent="1">
          <mxGeometry x="1605" y="1050" width="70" height="80" as="geometry" />
        </mxCell>
        <mxCell id="HwJ8LK8OYXeAmico5oYo-111" value="" style="endArrow=none;dashed=1;html=1;dashPattern=1 3;strokeWidth=2;rounded=0;" edge="1" parent="1">
          <mxGeometry width="50" height="50" relative="1" as="geometry">
            <mxPoint x="1060" y="1660" as="sourcePoint" />
            <mxPoint x="1070" y="1130" as="targetPoint" />
          </mxGeometry>
        </mxCell>
        <mxCell id="HwJ8LK8OYXeAmico5oYo-112" value="" style="endArrow=none;dashed=1;html=1;dashPattern=1 3;strokeWidth=2;rounded=0;entryX=0.554;entryY=1.005;entryDx=0;entryDy=0;entryPerimeter=0;" edge="1" parent="1" target="HwJ8LK8OYXeAmico5oYo-108">
          <mxGeometry width="50" height="50" relative="1" as="geometry">
            <mxPoint x="1245" y="1680" as="sourcePoint" />
            <mxPoint x="1229.66" y="1170" as="targetPoint" />
          </mxGeometry>
        </mxCell>
        <mxCell id="HwJ8LK8OYXeAmico5oYo-113" value="" style="endArrow=none;dashed=1;html=1;dashPattern=1 3;strokeWidth=2;rounded=0;entryX=0.526;entryY=0.993;entryDx=0;entryDy=0;entryPerimeter=0;" edge="1" parent="1">
          <mxGeometry width="50" height="50" relative="1" as="geometry">
            <mxPoint x="1430" y="1680" as="sourcePoint" />
            <mxPoint x="1432.6" y="1139.44" as="targetPoint" />
          </mxGeometry>
        </mxCell>
        <mxCell id="HwJ8LK8OYXeAmico5oYo-114" value="" style="endArrow=none;dashed=1;html=1;dashPattern=1 3;strokeWidth=2;rounded=0;entryX=0.466;entryY=1.005;entryDx=0;entryDy=0;entryPerimeter=0;" edge="1" parent="1" target="HwJ8LK8OYXeAmico5oYo-110">
          <mxGeometry width="50" height="50" relative="1" as="geometry">
            <mxPoint x="1638" y="1680" as="sourcePoint" />
            <mxPoint x="1574.5" y="1170" as="targetPoint" />
          </mxGeometry>
        </mxCell>
        <mxCell id="HwJ8LK8OYXeAmico5oYo-116" value="" style="endArrow=classic;html=1;rounded=0;entryX=0;entryY=0;entryDx=0;entryDy=5;entryPerimeter=0;" edge="1" parent="1" target="HwJ8LK8OYXeAmico5oYo-118">
          <mxGeometry width="50" height="50" relative="1" as="geometry">
            <mxPoint x="1070" y="1275" as="sourcePoint" />
            <mxPoint x="1230" y="1280" as="targetPoint" />
          </mxGeometry>
        </mxCell>
        <mxCell id="HwJ8LK8OYXeAmico5oYo-117" value="1:Nhấn chọn giỏ hàng" style="text;html=1;align=center;verticalAlign=middle;resizable=0;points=[];autosize=1;strokeColor=none;fillColor=none;" vertex="1" parent="1">
          <mxGeometry x="1085" y="1238" width="140" height="30" as="geometry" />
        </mxCell>
        <mxCell id="HwJ8LK8OYXeAmico5oYo-118" value="" style="html=1;points=[[0,0,0,0,5],[0,1,0,0,-5],[1,0,0,0,5],[1,1,0,0,-5]];perimeter=orthogonalPerimeter;outlineConnect=0;targetShapes=umlLifeline;portConstraint=eastwest;newEdgeStyle={&quot;curved&quot;:0,&quot;rounded&quot;:0};" vertex="1" parent="1">
          <mxGeometry x="1235" y="1270" width="10" height="30" as="geometry" />
        </mxCell>
        <mxCell id="HwJ8LK8OYXeAmico5oYo-120" value="2:Yêu cầu hiển thị&amp;nbsp;&lt;br&gt;&amp;nbsp;danh sách sản phẩm&amp;nbsp;&lt;div&gt;có trong giỏ hàng&lt;/div&gt;" style="text;html=1;align=center;verticalAlign=middle;resizable=0;points=[];autosize=1;strokeColor=none;fillColor=none;" vertex="1" parent="1">
          <mxGeometry x="1265" y="1218" width="140" height="60" as="geometry" />
        </mxCell>
        <mxCell id="HwJ8LK8OYXeAmico5oYo-123" value="" style="endArrow=classic;html=1;rounded=0;entryX=-0.001;entryY=0.942;entryDx=0;entryDy=0;entryPerimeter=0;" edge="1" parent="1">
          <mxGeometry width="50" height="50" relative="1" as="geometry">
            <mxPoint x="1070" y="1320" as="sourcePoint" />
            <mxPoint x="1424.8000000000002" y="1322.68" as="targetPoint" />
          </mxGeometry>
        </mxCell>
        <mxCell id="HwJ8LK8OYXeAmico5oYo-124" value="3:Chọn sản phẩm cần xóa" style="text;html=1;align=center;verticalAlign=middle;resizable=0;points=[];autosize=1;strokeColor=none;fillColor=none;" vertex="1" parent="1">
          <mxGeometry x="1070" y="1290" width="160" height="30" as="geometry" />
        </mxCell>
        <mxCell id="HwJ8LK8OYXeAmico5oYo-133" value="Lớp thông tin đơn hàng" style="ellipse;shape=umlEntity;whiteSpace=wrap;html=1;" vertex="1" parent="1">
          <mxGeometry x="2085" y="1060" width="80" height="80" as="geometry" />
        </mxCell>
        <mxCell id="HwJ8LK8OYXeAmico5oYo-143" value="Gio Hang Controler" style="ellipse;shape=umlControl;whiteSpace=wrap;html=1;" vertex="1" parent="1">
          <mxGeometry x="1395" y="1050" width="70" height="80" as="geometry" />
        </mxCell>
        <mxCell id="HwJ8LK8OYXeAmico5oYo-144" value="Lớp thông tin giỏ hàng" style="ellipse;shape=umlEntity;whiteSpace=wrap;html=1;" vertex="1" parent="1">
          <mxGeometry x="1840" y="1050" width="80" height="80" as="geometry" />
        </mxCell>
        <mxCell id="HwJ8LK8OYXeAmico5oYo-145" value="" style="endArrow=classic;html=1;rounded=0;" edge="1" parent="1" source="HwJ8LK8OYXeAmico5oYo-118">
          <mxGeometry width="50" height="50" relative="1" as="geometry">
            <mxPoint x="1150" y="1450" as="sourcePoint" />
            <mxPoint x="1430" y="1280" as="targetPoint" />
          </mxGeometry>
        </mxCell>
        <mxCell id="HwJ8LK8OYXeAmico5oYo-146" value="" style="endArrow=none;dashed=1;html=1;dashPattern=1 3;strokeWidth=2;rounded=0;entryX=0.5;entryY=1;entryDx=0;entryDy=0;" edge="1" parent="1" source="HwJ8LK8OYXeAmico5oYo-150" target="HwJ8LK8OYXeAmico5oYo-144">
          <mxGeometry width="50" height="50" relative="1" as="geometry">
            <mxPoint x="1880" y="1680" as="sourcePoint" />
            <mxPoint x="1500" y="1300" as="targetPoint" />
          </mxGeometry>
        </mxCell>
        <mxCell id="HwJ8LK8OYXeAmico5oYo-147" value="" style="endArrow=none;dashed=1;html=1;dashPattern=1 3;strokeWidth=2;rounded=0;" edge="1" parent="1" source="HwJ8LK8OYXeAmico5oYo-162" target="HwJ8LK8OYXeAmico5oYo-133">
          <mxGeometry width="50" height="50" relative="1" as="geometry">
            <mxPoint x="2124" y="1690" as="sourcePoint" />
            <mxPoint x="2124" y="1140" as="targetPoint" />
          </mxGeometry>
        </mxCell>
        <mxCell id="HwJ8LK8OYXeAmico5oYo-148" value="" style="endArrow=classic;html=1;rounded=0;" edge="1" parent="1">
          <mxGeometry width="50" height="50" relative="1" as="geometry">
            <mxPoint x="1440" y="1300" as="sourcePoint" />
            <mxPoint x="1870" y="1300" as="targetPoint" />
          </mxGeometry>
        </mxCell>
        <mxCell id="HwJ8LK8OYXeAmico5oYo-149" value="3:Lấy danh sách các sản phẩm đã thêm vào giỏ hàng" style="text;html=1;align=center;verticalAlign=middle;resizable=0;points=[];autosize=1;strokeColor=none;fillColor=none;" vertex="1" parent="1">
          <mxGeometry x="1455" y="1268" width="310" height="30" as="geometry" />
        </mxCell>
        <mxCell id="HwJ8LK8OYXeAmico5oYo-151" value="" style="endArrow=none;dashed=1;html=1;dashPattern=1 3;strokeWidth=2;rounded=0;entryX=0.5;entryY=1;entryDx=0;entryDy=0;" edge="1" parent="1" target="HwJ8LK8OYXeAmico5oYo-150">
          <mxGeometry width="50" height="50" relative="1" as="geometry">
            <mxPoint x="1880" y="1680" as="sourcePoint" />
            <mxPoint x="1880" y="1130" as="targetPoint" />
          </mxGeometry>
        </mxCell>
        <mxCell id="HwJ8LK8OYXeAmico5oYo-150" value="" style="html=1;points=[[0,0,0,0,5],[0,1,0,0,-5],[1,0,0,0,5],[1,1,0,0,-5]];perimeter=orthogonalPerimeter;outlineConnect=0;targetShapes=umlLifeline;portConstraint=eastwest;newEdgeStyle={&quot;curved&quot;:0,&quot;rounded&quot;:0};" vertex="1" parent="1">
          <mxGeometry x="1875" y="1290" width="10" height="60" as="geometry" />
        </mxCell>
        <mxCell id="HwJ8LK8OYXeAmico5oYo-152" value="4:Trả về kết quả sau khi lấy danh sách" style="endArrow=open;endSize=12;dashed=1;html=1;rounded=0;" edge="1" parent="1" source="HwJ8LK8OYXeAmico5oYo-150">
          <mxGeometry width="160" relative="1" as="geometry">
            <mxPoint x="1520" y="1330" as="sourcePoint" />
            <mxPoint x="1435" y="1320" as="targetPoint" />
            <mxPoint as="offset" />
          </mxGeometry>
        </mxCell>
        <mxCell id="HwJ8LK8OYXeAmico5oYo-154" value="5:Hiển thị danh sách các sản&lt;div&gt;phẩm đã thêm vào giỏ hàng&lt;/div&gt;" style="endArrow=open;endSize=12;dashed=1;html=1;rounded=0;" edge="1" parent="1">
          <mxGeometry width="160" relative="1" as="geometry">
            <mxPoint x="1430" y="1440" as="sourcePoint" />
            <mxPoint x="1245" y="1440" as="targetPoint" />
            <mxPoint as="offset" />
          </mxGeometry>
        </mxCell>
        <mxCell id="HwJ8LK8OYXeAmico5oYo-160" value="" style="endArrow=classic;html=1;rounded=0;entryX=0;entryY=0.667;entryDx=0;entryDy=0;entryPerimeter=0;" edge="1" parent="1" target="HwJ8LK8OYXeAmico5oYo-162">
          <mxGeometry width="50" height="50" relative="1" as="geometry">
            <mxPoint x="1250" y="1530" as="sourcePoint" />
            <mxPoint x="2130" y="1530" as="targetPoint" />
          </mxGeometry>
        </mxCell>
        <mxCell id="HwJ8LK8OYXeAmico5oYo-161" value="6:Gửi yêu cầu xác nhận đến Controler" style="text;html=1;align=center;verticalAlign=middle;resizable=0;points=[];autosize=1;strokeColor=none;fillColor=none;" vertex="1" parent="1">
          <mxGeometry x="1290" y="1498" width="230" height="30" as="geometry" />
        </mxCell>
        <mxCell id="HwJ8LK8OYXeAmico5oYo-164" value="" style="endArrow=none;dashed=1;html=1;dashPattern=1 3;strokeWidth=2;rounded=0;" edge="1" parent="1" target="HwJ8LK8OYXeAmico5oYo-162">
          <mxGeometry width="50" height="50" relative="1" as="geometry">
            <mxPoint x="2124" y="1690" as="sourcePoint" />
            <mxPoint x="2125" y="1140" as="targetPoint" />
          </mxGeometry>
        </mxCell>
        <mxCell id="HwJ8LK8OYXeAmico5oYo-162" value="" style="html=1;points=[[0,0,0,0,5],[0,1,0,0,-5],[1,0,0,0,5],[1,1,0,0,-5]];perimeter=orthogonalPerimeter;outlineConnect=0;targetShapes=umlLifeline;portConstraint=eastwest;newEdgeStyle={&quot;curved&quot;:0,&quot;rounded&quot;:0};" vertex="1" parent="1">
          <mxGeometry x="2120" y="1490" width="10" height="60" as="geometry" />
        </mxCell>
        <mxCell id="HwJ8LK8OYXeAmico5oYo-165" value="" style="endArrow=block;dashed=1;endFill=0;endSize=12;html=1;rounded=0;entryX=1;entryY=1;entryDx=0;entryDy=-5;entryPerimeter=0;" edge="1" parent="1" source="HwJ8LK8OYXeAmico5oYo-162" target="HwJ8LK8OYXeAmico5oYo-162">
          <mxGeometry width="160" relative="1" as="geometry">
            <mxPoint x="2170" y="1500" as="sourcePoint" />
            <mxPoint x="2180" y="1535" as="targetPoint" />
            <Array as="points">
              <mxPoint x="2160" y="1510" />
              <mxPoint x="2160" y="1530" />
              <mxPoint x="2160" y="1545" />
            </Array>
          </mxGeometry>
        </mxCell>
        <mxCell id="HwJ8LK8OYXeAmico5oYo-166" value="7:Thêm vào&lt;div&gt;CSDL&lt;/div&gt;" style="text;html=1;align=center;verticalAlign=middle;resizable=0;points=[];autosize=1;strokeColor=none;fillColor=none;" vertex="1" parent="1">
          <mxGeometry x="2130" y="1470" width="90" height="40" as="geometry" />
        </mxCell>
        <mxCell id="HwJ8LK8OYXeAmico5oYo-167" value="8:Trả về kết quả" style="endArrow=open;endSize=12;dashed=1;html=1;rounded=0;" edge="1" parent="1">
          <mxGeometry width="160" relative="1" as="geometry">
            <mxPoint x="2120" y="1610" as="sourcePoint" />
            <mxPoint x="1640" y="1610" as="targetPoint" />
            <Array as="points">
              <mxPoint x="1840" y="1610" />
            </Array>
          </mxGeometry>
        </mxCell>
        <mxCell id="HwJ8LK8OYXeAmico5oYo-168" value="9:Thông báo đặt hàng thành công" style="endArrow=open;endSize=12;dashed=1;html=1;rounded=0;" edge="1" parent="1">
          <mxGeometry width="160" relative="1" as="geometry">
            <mxPoint x="1640" y="1630" as="sourcePoint" />
            <mxPoint x="1240" y="1630" as="targetPoint" />
          </mxGeometry>
        </mxCell>
        <mxCell id="HwJ8LK8OYXeAmico5oYo-169" value="Admin" style="shape=umlActor;verticalLabelPosition=bottom;verticalAlign=top;html=1;" vertex="1" parent="1">
          <mxGeometry x="2335" y="1060" width="30" height="60" as="geometry" />
        </mxCell>
        <mxCell id="HwJ8LK8OYXeAmico5oYo-170" value="Giao diện website" style="shape=umlBoundary;whiteSpace=wrap;html=1;" vertex="1" parent="1">
          <mxGeometry x="2465" y="1060" width="100" height="80" as="geometry" />
        </mxCell>
        <mxCell id="HwJ8LK8OYXeAmico5oYo-171" value="Controler" style="ellipse;shape=umlControl;whiteSpace=wrap;html=1;" vertex="1" parent="1">
          <mxGeometry x="2880" y="1060" width="70" height="80" as="geometry" />
        </mxCell>
        <mxCell id="HwJ8LK8OYXeAmico5oYo-172" value="" style="endArrow=none;dashed=1;html=1;dashPattern=1 3;strokeWidth=2;rounded=0;" edge="1" parent="1">
          <mxGeometry width="50" height="50" relative="1" as="geometry">
            <mxPoint x="2335" y="1670" as="sourcePoint" />
            <mxPoint x="2345" y="1140" as="targetPoint" />
          </mxGeometry>
        </mxCell>
        <mxCell id="HwJ8LK8OYXeAmico5oYo-173" value="" style="endArrow=none;dashed=1;html=1;dashPattern=1 3;strokeWidth=2;rounded=0;entryX=0.554;entryY=1.005;entryDx=0;entryDy=0;entryPerimeter=0;" edge="1" parent="1" target="HwJ8LK8OYXeAmico5oYo-170">
          <mxGeometry width="50" height="50" relative="1" as="geometry">
            <mxPoint x="2520" y="1690" as="sourcePoint" />
            <mxPoint x="2504.66" y="1180" as="targetPoint" />
          </mxGeometry>
        </mxCell>
        <mxCell id="HwJ8LK8OYXeAmico5oYo-174" value="" style="endArrow=none;dashed=1;html=1;dashPattern=1 3;strokeWidth=2;rounded=0;entryX=0.526;entryY=0.993;entryDx=0;entryDy=0;entryPerimeter=0;" edge="1" parent="1" source="HwJ8LK8OYXeAmico5oYo-207">
          <mxGeometry width="50" height="50" relative="1" as="geometry">
            <mxPoint x="2705" y="1690" as="sourcePoint" />
            <mxPoint x="2707.6" y="1149.44" as="targetPoint" />
          </mxGeometry>
        </mxCell>
        <mxCell id="HwJ8LK8OYXeAmico5oYo-176" value="" style="endArrow=classic;html=1;rounded=0;entryX=0;entryY=0;entryDx=0;entryDy=5;entryPerimeter=0;" edge="1" parent="1" target="HwJ8LK8OYXeAmico5oYo-178">
          <mxGeometry width="50" height="50" relative="1" as="geometry">
            <mxPoint x="2345" y="1285" as="sourcePoint" />
            <mxPoint x="2505" y="1290" as="targetPoint" />
          </mxGeometry>
        </mxCell>
        <mxCell id="HwJ8LK8OYXeAmico5oYo-177" value="1:Nhấn chọn quản lý sản phẩm" style="text;html=1;align=center;verticalAlign=middle;resizable=0;points=[];autosize=1;strokeColor=none;fillColor=none;" vertex="1" parent="1">
          <mxGeometry x="2335" y="1248" width="190" height="30" as="geometry" />
        </mxCell>
        <mxCell id="HwJ8LK8OYXeAmico5oYo-178" value="" style="html=1;points=[[0,0,0,0,5],[0,1,0,0,-5],[1,0,0,0,5],[1,1,0,0,-5]];perimeter=orthogonalPerimeter;outlineConnect=0;targetShapes=umlLifeline;portConstraint=eastwest;newEdgeStyle={&quot;curved&quot;:0,&quot;rounded&quot;:0};" vertex="1" parent="1">
          <mxGeometry x="2510" y="1280" width="10" height="30" as="geometry" />
        </mxCell>
        <mxCell id="HwJ8LK8OYXeAmico5oYo-179" value="2:Yêu cầu hiển thị form&lt;div&gt;thêm sản phẩm&lt;/div&gt;" style="text;html=1;align=center;verticalAlign=middle;resizable=0;points=[];autosize=1;strokeColor=none;fillColor=none;" vertex="1" parent="1">
          <mxGeometry x="2530" y="1250" width="150" height="40" as="geometry" />
        </mxCell>
        <mxCell id="HwJ8LK8OYXeAmico5oYo-180" value="" style="endArrow=classic;html=1;rounded=0;" edge="1" parent="1">
          <mxGeometry width="50" height="50" relative="1" as="geometry">
            <mxPoint x="2340" y="1350" as="sourcePoint" />
            <mxPoint x="2690" y="1350" as="targetPoint" />
          </mxGeometry>
        </mxCell>
        <mxCell id="HwJ8LK8OYXeAmico5oYo-181" value="3:Nhập thông tin sản phẩm cần thêm" style="text;html=1;align=center;verticalAlign=middle;resizable=0;points=[];autosize=1;strokeColor=none;fillColor=none;" vertex="1" parent="1">
          <mxGeometry x="2405" y="1315" width="220" height="30" as="geometry" />
        </mxCell>
        <mxCell id="HwJ8LK8OYXeAmico5oYo-184" value="Lớp thông tin sản phẩm" style="ellipse;shape=umlEntity;whiteSpace=wrap;html=1;" vertex="1" parent="1">
          <mxGeometry x="3115" y="1060" width="80" height="80" as="geometry" />
        </mxCell>
        <mxCell id="HwJ8LK8OYXeAmico5oYo-185" value="" style="endArrow=classic;html=1;rounded=0;" edge="1" parent="1" source="HwJ8LK8OYXeAmico5oYo-178">
          <mxGeometry width="50" height="50" relative="1" as="geometry">
            <mxPoint x="2425" y="1460" as="sourcePoint" />
            <mxPoint x="2705" y="1290" as="targetPoint" />
          </mxGeometry>
        </mxCell>
        <mxCell id="HwJ8LK8OYXeAmico5oYo-186" value="" style="endArrow=none;dashed=1;html=1;dashPattern=1 3;strokeWidth=2;rounded=0;entryX=0.5;entryY=1;entryDx=0;entryDy=0;" edge="1" parent="1" source="HwJ8LK8OYXeAmico5oYo-216" target="HwJ8LK8OYXeAmico5oYo-184">
          <mxGeometry width="50" height="50" relative="1" as="geometry">
            <mxPoint x="3155" y="1690" as="sourcePoint" />
            <mxPoint x="2775" y="1310" as="targetPoint" />
          </mxGeometry>
        </mxCell>
        <mxCell id="HwJ8LK8OYXeAmico5oYo-203" value="Giao diện danh sách sản phẩm" style="shape=umlBoundary;whiteSpace=wrap;html=1;" vertex="1" parent="1">
          <mxGeometry x="2650" y="1060" width="100" height="80" as="geometry" />
        </mxCell>
        <mxCell id="HwJ8LK8OYXeAmico5oYo-208" value="4:Kiểm tra thông tin&lt;div&gt;không được để trống&lt;/div&gt;" style="html=1;align=left;spacingLeft=2;endArrow=block;rounded=0;edgeStyle=orthogonalEdgeStyle;curved=0;rounded=0;" edge="1" target="HwJ8LK8OYXeAmico5oYo-207" parent="1" source="HwJ8LK8OYXeAmico5oYo-207">
          <mxGeometry relative="1" as="geometry">
            <mxPoint x="2920" y="1330" as="sourcePoint" />
            <Array as="points">
              <mxPoint x="2760" y="1320" />
              <mxPoint x="2760" y="1350" />
            </Array>
          </mxGeometry>
        </mxCell>
        <mxCell id="HwJ8LK8OYXeAmico5oYo-210" value="" style="endArrow=none;dashed=1;html=1;dashPattern=1 3;strokeWidth=2;rounded=0;entryX=0.526;entryY=0.993;entryDx=0;entryDy=0;entryPerimeter=0;" edge="1" parent="1" target="HwJ8LK8OYXeAmico5oYo-207">
          <mxGeometry width="50" height="50" relative="1" as="geometry">
            <mxPoint x="2710" y="1690" as="sourcePoint" />
            <mxPoint x="2707.6" y="1149.44" as="targetPoint" />
          </mxGeometry>
        </mxCell>
        <mxCell id="HwJ8LK8OYXeAmico5oYo-207" value="" style="html=1;points=[[0,0,0,0,5],[0,1,0,0,-5],[1,0,0,0,5],[1,1,0,0,-5]];perimeter=orthogonalPerimeter;outlineConnect=0;targetShapes=umlLifeline;portConstraint=eastwest;newEdgeStyle={&quot;curved&quot;:0,&quot;rounded&quot;:0};" vertex="1" parent="1">
          <mxGeometry x="2705" y="1315" width="10" height="70" as="geometry" />
        </mxCell>
        <mxCell id="HwJ8LK8OYXeAmico5oYo-211" value="" style="endArrow=classic;html=1;rounded=0;exitX=1;exitY=1;exitDx=0;exitDy=-5;exitPerimeter=0;" edge="1" parent="1" source="HwJ8LK8OYXeAmico5oYo-207">
          <mxGeometry width="50" height="50" relative="1" as="geometry">
            <mxPoint x="2500" y="1360" as="sourcePoint" />
            <mxPoint x="2910" y="1380" as="targetPoint" />
          </mxGeometry>
        </mxCell>
        <mxCell id="HwJ8LK8OYXeAmico5oYo-212" value="" style="endArrow=none;dashed=1;html=1;dashPattern=1 3;strokeWidth=2;rounded=0;entryX=0.555;entryY=1.02;entryDx=0;entryDy=0;entryPerimeter=0;" edge="1" parent="1" source="HwJ8LK8OYXeAmico5oYo-214" target="HwJ8LK8OYXeAmico5oYo-171">
          <mxGeometry width="50" height="50" relative="1" as="geometry">
            <mxPoint x="2920" y="1690" as="sourcePoint" />
            <mxPoint x="2550" y="1310" as="targetPoint" />
          </mxGeometry>
        </mxCell>
        <mxCell id="HwJ8LK8OYXeAmico5oYo-213" value="5:Gửi yêu cầu thêm&lt;div&gt;mới đến Controler&lt;/div&gt;" style="text;html=1;align=center;verticalAlign=middle;resizable=0;points=[];autosize=1;strokeColor=none;fillColor=none;" vertex="1" parent="1">
          <mxGeometry x="2715" y="1380" width="130" height="40" as="geometry" />
        </mxCell>
        <mxCell id="HwJ8LK8OYXeAmico5oYo-215" value="" style="endArrow=none;dashed=1;html=1;dashPattern=1 3;strokeWidth=2;rounded=0;entryX=0.555;entryY=1.02;entryDx=0;entryDy=0;entryPerimeter=0;" edge="1" parent="1" target="HwJ8LK8OYXeAmico5oYo-214">
          <mxGeometry width="50" height="50" relative="1" as="geometry">
            <mxPoint x="2920" y="1690" as="sourcePoint" />
            <mxPoint x="2919" y="1142" as="targetPoint" />
          </mxGeometry>
        </mxCell>
        <mxCell id="HwJ8LK8OYXeAmico5oYo-214" value="" style="html=1;points=[[0,0,0,0,5],[0,1,0,0,-5],[1,0,0,0,5],[1,1,0,0,-5]];perimeter=orthogonalPerimeter;outlineConnect=0;targetShapes=umlLifeline;portConstraint=eastwest;newEdgeStyle={&quot;curved&quot;:0,&quot;rounded&quot;:0};" vertex="1" parent="1">
          <mxGeometry x="2910" y="1365" width="10" height="30" as="geometry" />
        </mxCell>
        <mxCell id="HwJ8LK8OYXeAmico5oYo-217" value="" style="endArrow=none;dashed=1;html=1;dashPattern=1 3;strokeWidth=2;rounded=0;entryX=0.5;entryY=1;entryDx=0;entryDy=0;" edge="1" parent="1" target="HwJ8LK8OYXeAmico5oYo-216">
          <mxGeometry width="50" height="50" relative="1" as="geometry">
            <mxPoint x="3155" y="1690" as="sourcePoint" />
            <mxPoint x="3155" y="1140" as="targetPoint" />
          </mxGeometry>
        </mxCell>
        <mxCell id="HwJ8LK8OYXeAmico5oYo-216" value="" style="html=1;points=[[0,0,0,0,5],[0,1,0,0,-5],[1,0,0,0,5],[1,1,0,0,-5]];perimeter=orthogonalPerimeter;outlineConnect=0;targetShapes=umlLifeline;portConstraint=eastwest;newEdgeStyle={&quot;curved&quot;:0,&quot;rounded&quot;:0};" vertex="1" parent="1">
          <mxGeometry x="3150" y="1355" width="10" height="70" as="geometry" />
        </mxCell>
        <mxCell id="HwJ8LK8OYXeAmico5oYo-218" value="" style="endArrow=classic;html=1;rounded=0;exitX=1;exitY=1;exitDx=0;exitDy=-5;exitPerimeter=0;" edge="1" parent="1" source="HwJ8LK8OYXeAmico5oYo-214" target="HwJ8LK8OYXeAmico5oYo-216">
          <mxGeometry width="50" height="50" relative="1" as="geometry">
            <mxPoint x="2930" y="1390" as="sourcePoint" />
            <mxPoint x="2820" y="1340" as="targetPoint" />
          </mxGeometry>
        </mxCell>
        <mxCell id="HwJ8LK8OYXeAmico5oYo-219" value="6:Gửi yêu cầu&lt;br&gt;thêm mới sản phẩm" style="text;html=1;align=center;verticalAlign=middle;resizable=0;points=[];autosize=1;strokeColor=none;fillColor=none;" vertex="1" parent="1">
          <mxGeometry x="2920" y="1350" width="130" height="40" as="geometry" />
        </mxCell>
        <mxCell id="HwJ8LK8OYXeAmico5oYo-220" value="7" style="endArrow=open;endSize=12;dashed=1;html=1;rounded=0;entryX=1;entryY=1;entryDx=0;entryDy=-5;entryPerimeter=0;" edge="1" parent="1" source="HwJ8LK8OYXeAmico5oYo-216" target="HwJ8LK8OYXeAmico5oYo-216">
          <mxGeometry x="-0.6923" y="-10" width="160" relative="1" as="geometry">
            <mxPoint x="3230" y="1370" as="sourcePoint" />
            <mxPoint x="3220" y="1360" as="targetPoint" />
            <Array as="points">
              <mxPoint x="3210" y="1390" />
              <mxPoint x="3210" y="1420" />
            </Array>
            <mxPoint as="offset" />
          </mxGeometry>
        </mxCell>
      </root>
    </mxGraphModel>
  </diagram>
</mxfile>
